<svg width="351" height="35" viewBox="0 0 351 35" fill="none" xmlns="http://www.w3.org/2000/svg">
<g clip-path="url(#clip0_309_5057)">
<path d="M81.2305 12.5552L77.7153 22.2131" stroke="var(--bb-1)" stroke-width="1.5" stroke-linecap="round"/>
<path d="M87.4893 8.69189L81.1619 26.0762" stroke="var(--bb-1)" stroke-width="1.5" stroke-linecap="round"/>
<path d="M91.6392 10.6235L86.7179 24.1447" stroke="var(--bb-1)" stroke-width="1.5" stroke-linecap="round"/>
<path d="M97.8979 6.76025L90.1645 28.0077" stroke="var(--bb-1)" stroke-width="1.5" stroke-linecap="round"/>
<path d="M101.696 9.65771L96.072 25.1104" stroke="var(--bb-1)" stroke-width="1.5" stroke-linecap="round"/>
<path d="M105.846 11.5894L101.628 23.1789" stroke="var(--bb-1)" stroke-width="1.5" stroke-linecap="round"/>
<path d="M112.105 7.72607L105.075 27.042" stroke="var(--bb-1)" stroke-width="1.5" stroke-linecap="round"/>
<path d="M117.661 5.79443L109.224 28.9735" stroke="var(--bb-1)" stroke-width="1.5" stroke-linecap="round"/>
<path d="M120.756 10.6235L115.835 24.1447" stroke="var(--bb-1)" stroke-width="1.5" stroke-linecap="round"/>
</g>
<rect x="0.493485" y="0.704769" width="47.0279" height="35.5" transform="matrix(1 0 -0.34202 0.939693 81.1883 0.0425028)" stroke="var(--bb-1)" stroke-width="1.5"/>
<g clip-path="url(#clip1_309_5057)">
<path d="M217.814 12.5552L214.299 22.2131" stroke="var(--bb-1)" stroke-width="1.5" stroke-linecap="round"/>
<path d="M224.073 8.69189L217.746 26.0762" stroke="var(--bb-1)" stroke-width="1.5" stroke-linecap="round"/>
<path d="M228.223 10.6235L223.302 24.1447" stroke="var(--bb-1)" stroke-width="1.5" stroke-linecap="round"/>
<path d="M234.482 6.76025L226.748 28.0077" stroke="var(--bb-1)" stroke-width="1.5" stroke-linecap="round"/>
<path d="M238.28 9.65771L232.656 25.1104" stroke="var(--bb-1)" stroke-width="1.5" stroke-linecap="round"/>
<path d="M242.43 11.5894L238.212 23.1789" stroke="var(--bb-1)" stroke-width="1.5" stroke-linecap="round"/>
<path d="M248.689 7.72607L241.659 27.042" stroke="var(--bb-1)" stroke-width="1.5" stroke-linecap="round"/>
</g>
<path d="M233.538 0.704769C237.542 0.704769 239.678 3.75495 238.309 7.51754L229.758 31.0099C229.144 32.6965 227.192 34.0639 225.397 34.0639H205.883L218.025 0.704769H233.538Z" stroke="var(--bb-1)" stroke-width="1.5"/>
<g clip-path="url(#clip2_309_5057)">
<path d="M171.231 15.4526L169.825 19.3158" stroke="var(--bb-2)" stroke-width="1.5" stroke-linecap="round"/>
<path d="M179.599 5.79443L171.163 28.9735" stroke="var(--bb-2)" stroke-width="1.5" stroke-linecap="round"/>
<path d="M181.289 14.4868L179.179 20.2816" stroke="var(--bb-2)" stroke-width="1.5" stroke-linecap="round"/>
<path d="M190.008 3.86328L180.165 30.9055" stroke="var(--bb-2)" stroke-width="1.5" stroke-linecap="round"/>
<path d="M191.346 13.521L188.534 21.2474" stroke="var(--bb-2)" stroke-width="1.5" stroke-linecap="round"/>
<path d="M199.362 4.8291L190.222 29.9398" stroke="var(--bb-2)" stroke-width="1.5" stroke-linecap="round"/>
</g>
<rect x="0.493485" y="0.704769" width="22.764" height="35.5" transform="matrix(1 0 -0.34202 0.939693 172.244 0.0425028)" stroke="var(--bb-2)" stroke-width="1.5"/>
<g clip-path="url(#clip3_309_5057)">
<path d="M193.996 15.4526L192.59 19.3158" stroke="var(--bb-2)" stroke-width="1.5" stroke-linecap="round"/>
<path d="M202.363 5.79443L193.927 28.9735" stroke="var(--bb-2)" stroke-width="1.5" stroke-linecap="round"/>
<path d="M204.053 14.4868L201.944 20.2816" stroke="var(--bb-2)" stroke-width="1.5" stroke-linecap="round"/>
<path d="M212.772 3.86328L202.929 30.9055" stroke="var(--bb-2)" stroke-width="1.5" stroke-linecap="round"/>
<path d="M214.11 13.521L211.298 21.2474" stroke="var(--bb-2)" stroke-width="1.5" stroke-linecap="round"/>
<path d="M222.126 4.8291L212.986 29.9398" stroke="var(--bb-2)" stroke-width="1.5" stroke-linecap="round"/>
</g>
<rect x="0.493485" y="0.704769" width="22.764" height="35.5" transform="matrix(1 0 -0.34202 0.939693 195.008 0.0425028)" stroke="var(--bb-2)" stroke-width="1.5"/>
<g clip-path="url(#clip4_309_5057)">
<path d="M36.7563 9.65771L31.132 25.1104" stroke="var(--bb-3)" stroke-width="1.5" stroke-linecap="round"/>
<path d="M41.6094 9.65771L35.985 25.1104" stroke="var(--bb-3)" stroke-width="1.5" stroke-linecap="round"/>
<path d="M46.6377 9.1748L40.6618 25.5933" stroke="var(--bb-3)" stroke-width="1.5" stroke-linecap="round"/>
<path d="M51.3149 9.65771L45.6906 25.1104" stroke="var(--bb-3)" stroke-width="1.5" stroke-linecap="round"/>
<path d="M56.3433 9.1748L50.3674 25.5933" stroke="var(--bb-3)" stroke-width="1.5" stroke-linecap="round"/>
<path d="M61.0205 9.65771L55.3962 25.1104" stroke="var(--bb-3)" stroke-width="1.5" stroke-linecap="round"/>
<path d="M66.0493 9.1748L60.0735 25.5933" stroke="var(--bb-3)" stroke-width="1.5" stroke-linecap="round"/>
</g>
<rect x="0.493485" y="0.704769" width="22.764" height="35.5" transform="matrix(1 0 -0.34202 0.939693 35.66 0.0425028)" stroke="var(--bb-3)" stroke-width="1.5"/>
<g clip-path="url(#clip5_309_5057)">
<path d="M13.9922 9.65771L8.36786 25.1104" stroke="var(--bb-3)" stroke-width="1.5" stroke-linecap="round"/>
<path d="M18.8452 9.65771L13.2209 25.1104" stroke="var(--bb-3)" stroke-width="1.5" stroke-linecap="round"/>
<path d="M23.8735 9.1748L17.8977 25.5933" stroke="var(--bb-3)" stroke-width="1.5" stroke-linecap="round"/>
<path d="M28.5508 9.65771L22.9264 25.1104" stroke="var(--bb-3)" stroke-width="1.5" stroke-linecap="round"/>
<path d="M33.5791 9.1748L27.6033 25.5933" stroke="var(--bb-3)" stroke-width="1.5" stroke-linecap="round"/>
<path d="M38.2563 9.65771L32.632 25.1104" stroke="var(--bb-3)" stroke-width="1.5" stroke-linecap="round"/>
<path d="M43.2852 9.1748L37.3093 25.5933" stroke="var(--bb-3)" stroke-width="1.5" stroke-linecap="round"/>
</g>
<path d="M16.3983 0.704769H35.9119L23.7702 34.0639H8.25655C4.25249 34.0639 2.11673 31.0137 3.4862 27.2511L12.0367 3.75877C12.6506 2.07209 14.6033 0.70477 16.3983 0.704769Z" stroke="var(--bb-3)" stroke-width="1.5"/>
<g clip-path="url(#clip6_309_5057)">
<path d="M57.7632 14.4868L55.6541 20.2816" stroke="var(--bb-4)" stroke-width="1.5" stroke-linecap="round"/>
<path d="M63.3188 12.5552L59.8036 22.2131" stroke="var(--bb-4)" stroke-width="1.5" stroke-linecap="round"/>
<path d="M69.2261 9.65771L63.6017 25.1104" stroke="var(--bb-4)" stroke-width="1.5" stroke-linecap="round"/>
<path d="M75.1338 6.76025L67.4003 28.0077" stroke="var(--bb-4)" stroke-width="1.5" stroke-linecap="round"/>
<path d="M80.3379 5.79443L71.9014 28.9735" stroke="var(--bb-4)" stroke-width="1.5" stroke-linecap="round"/>
<path d="M84.4878 7.72607L77.4574 27.042" stroke="var(--bb-4)" stroke-width="1.5" stroke-linecap="round"/>
<path d="M88.2861 10.6235L83.3648 24.1447" stroke="var(--bb-4)" stroke-width="1.5" stroke-linecap="round"/>
</g>
<rect x="0.493485" y="0.704769" width="22.764" height="35.5" transform="matrix(1 0 -0.34202 0.939693 58.4242 0.0425028)" stroke="var(--bb-4)" stroke-width="1.5"/>
<g clip-path="url(#clip7_309_5057)">
<path d="M140.004 20.2817L142.114 14.487" stroke="var(--bb-4)" stroke-width="1.5" stroke-linecap="round"/>
<path d="M134.449 22.2134L137.964 12.5554" stroke="var(--bb-4)" stroke-width="1.5" stroke-linecap="round"/>
<path d="M128.542 25.1108L134.166 9.65812" stroke="var(--bb-4)" stroke-width="1.5" stroke-linecap="round"/>
<path d="M122.634 28.0083L130.367 6.76081" stroke="var(--bb-4)" stroke-width="1.5" stroke-linecap="round"/>
<path d="M117.43 28.9741L125.866 5.79504" stroke="var(--bb-4)" stroke-width="1.5" stroke-linecap="round"/>
<path d="M113.28 27.0425L120.31 7.72658" stroke="var(--bb-4)" stroke-width="1.5" stroke-linecap="round"/>
<path d="M109.481 24.145L114.403 10.6239" stroke="var(--bb-4)" stroke-width="1.5" stroke-linecap="round"/>
</g>
<rect x="-0.493485" y="-0.704769" width="22.764" height="35.5" transform="matrix(-1 0 0.34202 -0.939693 138.839 33.4015)" stroke="var(--bb-4)" stroke-width="1.5"/>
<g clip-path="url(#clip8_309_5057)">
<path d="M153.132 6.76025L145.398 28.0077" stroke="var(--bb-5)" stroke-width="1.5" stroke-linecap="round"/>
<path d="M154.172 14.4868L152.063 20.2816" stroke="var(--bb-5)" stroke-width="1.5" stroke-linecap="round"/>
<path d="M163.188 5.79443L154.752 28.9735" stroke="var(--bb-5)" stroke-width="1.5" stroke-linecap="round"/>
<path d="M164.526 15.4526L163.12 19.3158" stroke="var(--bb-5)" stroke-width="1.5" stroke-linecap="round"/>
</g>
<rect x="0.493485" y="0.704769" width="10.632" height="35.5" transform="matrix(1 0 -0.34202 0.939693 150.98 0.0425028)" stroke="var(--bb-5)" stroke-width="1.5"/>
<g clip-path="url(#clip9_309_5057)">
<path d="M163.764 6.76025L156.03 28.0077" stroke="var(--bb-5)" stroke-width="1.5" stroke-linecap="round"/>
<path d="M164.804 14.4868L162.695 20.2816" stroke="var(--bb-5)" stroke-width="1.5" stroke-linecap="round"/>
<path d="M173.82 5.79443L165.384 28.9735" stroke="var(--bb-5)" stroke-width="1.5" stroke-linecap="round"/>
<path d="M175.158 15.4526L173.752 19.3158" stroke="var(--bb-5)" stroke-width="1.5" stroke-linecap="round"/>
</g>
<rect x="0.493485" y="0.704769" width="10.632" height="35.5" transform="matrix(1 0 -0.34202 0.939693 161.612 0.0425028)" stroke="var(--bb-5)" stroke-width="1.5"/>
<path d="M266.612 24.432H256.887L262.616 8.69216H271.991C275.191 8.69216 276.612 10.0782 275.705 12.5684C275.03 14.4243 273.425 15.8103 270.773 16.0922L270.713 16.2567C273.452 16.5621 274.322 18.0186 273.569 20.0859C272.586 22.7875 270.062 24.432 266.612 24.432ZM264.462 10.9709L262.888 15.2935H269.213C271.088 15.2935 272.286 14.6122 272.825 13.1322C273.364 11.6522 272.737 10.9709 270.862 10.9709H264.462ZM262.127 17.3843L260.392 22.1533H267.142C269.142 22.1533 270.373 21.4485 270.997 19.7335C271.596 18.0891 270.852 17.3843 268.877 17.3843H262.127Z" fill="var(--bb-1)"/>
<path d="M283.086 24.432H273.361L279.09 8.69216H288.465C291.665 8.69216 293.085 10.0782 292.179 12.5684C291.503 14.4243 289.899 15.8103 287.246 16.0922L287.186 16.2567C289.925 16.5621 290.795 18.0186 290.043 20.0859C289.059 22.7875 286.536 24.432 283.086 24.432ZM280.935 10.9709L279.362 15.2935H285.687C287.562 15.2935 288.76 14.6122 289.299 13.1322C289.837 11.6522 289.21 10.9709 287.335 10.9709H280.935ZM278.601 17.3843L276.865 22.1533H283.615C285.615 22.1533 286.847 21.4485 287.471 19.7335C288.07 18.0891 287.326 17.3843 285.351 17.3843H278.601Z" fill="var(--bb-2)"/>
<path d="M298.024 24.6669C292.824 24.6669 290.537 21.472 292.324 16.5621C294.111 11.6522 298.724 8.45723 303.924 8.45723C308.649 8.45723 311.094 10.8065 309.726 14.5652L309.606 14.8941H306.631L306.751 14.5652C307.623 12.169 306.468 10.8769 303.068 10.8769C299.143 10.8769 296.602 12.6389 295.174 16.5621C293.746 20.4853 295.013 22.2237 298.938 22.2237C302.338 22.2237 304.425 20.9551 305.306 18.5354L305.417 18.23H308.392L308.281 18.5354C306.904 22.3177 302.774 24.6669 298.024 24.6669Z" fill="var(--bb-3)"/>
<path d="M315.538 24.6669C310.538 24.6669 308.594 22.1767 310.151 17.9011L313.502 8.69216H316.177L312.885 17.7367C311.731 20.9082 312.752 22.2237 316.427 22.2237C320.102 22.2237 322.081 20.9082 323.235 17.7367L326.527 8.69216H329.227L325.876 17.9011C324.319 22.1767 320.563 24.6669 315.538 24.6669Z" fill="var(--bb-4)"/>
<path d="M333.966 24.432H331.291L336.191 10.9709H329.591L330.42 8.69216H346.27L345.441 10.9709H338.866L333.966 24.432Z" fill="var(--bb-5)"/>
<defs>
<clipPath id="clip0_309_5057">
<rect width="48.5279" height="37" transform="matrix(1 0 -0.34202 0.939693 80.9473 0)" fill="var(--bb-4)"/>
</clipPath>
<clipPath id="clip1_309_5057">
<path d="M217.531 0H233.795C238.213 0 240.57 3.36572 239.059 7.51754L230.509 31.0099C229.753 33.0858 227.35 34.7686 225.14 34.7686H204.877L217.531 0Z" fill="var(--bb-4)"/>
</clipPath>
<clipPath id="clip2_309_5057">
<rect width="24.264" height="37" transform="matrix(1 0 -0.34202 0.939693 172.003 0)" fill="var(--bb-4)"/>
</clipPath>
<clipPath id="clip3_309_5057">
<rect width="24.264" height="37" transform="matrix(1 0 -0.34202 0.939693 194.767 0)" fill="var(--bb-4)"/>
</clipPath>
<clipPath id="clip4_309_5057">
<rect width="24.264" height="37" transform="matrix(1 0 -0.34202 0.939693 35.4189 0)" fill="var(--bb-4)"/>
</clipPath>
<clipPath id="clip5_309_5057">
<path d="M11.2867 3.75877C12.0423 1.68286 14.4456 0 16.6548 0H36.9187L24.264 34.7686H8.00003C3.58176 34.7686 1.22506 31.4029 2.7362 27.2511L11.2867 3.75877Z" fill="var(--bb-4)"/>
</clipPath>
<clipPath id="clip6_309_5057">
<rect width="24.264" height="37" transform="matrix(1 0 -0.34202 0.939693 58.1831 0)" fill="var(--bb-4)"/>
</clipPath>
<clipPath id="clip7_309_5057">
<rect width="24.264" height="37" transform="matrix(-1 0 0.34202 -0.939693 139.584 34.7686)" fill="var(--bb-4)"/>
</clipPath>
<clipPath id="clip8_309_5057">
<rect width="12.132" height="37" transform="matrix(1 0 -0.34202 0.939693 150.739 0)" fill="var(--bb-4)"/>
</clipPath>
<clipPath id="clip9_309_5057">
<rect width="12.132" height="37" transform="matrix(1 0 -0.34202 0.939693 161.371 0)" fill="var(--bb-4)"/>
</clipPath>
</defs>
</svg>
