<svg width="356" height="35" viewBox="0 0 356 35" fill="none" xmlns="http://www.w3.org/2000/svg">
<g clip-path="url(#clip0_360_2133)">
<path d="M79.5894 12.5552L76.0741 22.2131" stroke="#815EF2" stroke-width="1.5" stroke-linecap="round"/>
<path d="M85.7393 8.69189L79.4119 26.0762" stroke="#815EF2" stroke-width="1.5" stroke-linecap="round"/>
<path d="M89.7803 10.6235L84.859 24.1447" stroke="#815EF2" stroke-width="1.5" stroke-linecap="round"/>
<path d="M95.9302 6.76025L88.1967 28.0077" stroke="#815EF2" stroke-width="1.5" stroke-linecap="round"/>
<path d="M99.6196 9.65771L93.9953 25.1104" stroke="#815EF2" stroke-width="1.5" stroke-linecap="round"/>
<path d="M103.661 11.5894L99.4424 23.1789" stroke="#815EF2" stroke-width="1.5" stroke-linecap="round"/>
<path d="M109.811 7.72607L102.78 27.042" stroke="#815EF2" stroke-width="1.5" stroke-linecap="round"/>
<path d="M115.257 5.79443L106.821 28.9735" stroke="#815EF2" stroke-width="1.5" stroke-linecap="round"/>
<path d="M118.244 10.6235L113.322 24.1447" stroke="#815EF2" stroke-width="1.5" stroke-linecap="round"/>
</g>
<rect x="0.493485" y="0.704769" width="45.9393" height="35.5" transform="matrix(1 0 -0.34202 0.939693 79.6561 0.0425028)" stroke="#815EF2" stroke-width="1.5"/>
<g clip-path="url(#clip1_360_2133)">
<path d="M213.109 12.5552L209.594 22.2131" stroke="#815EF2" stroke-width="1.5" stroke-linecap="round"/>
<path d="M219.259 8.69189L212.932 26.0762" stroke="#815EF2" stroke-width="1.5" stroke-linecap="round"/>
<path d="M223.3 10.6235L218.379 24.1447" stroke="#815EF2" stroke-width="1.5" stroke-linecap="round"/>
<path d="M229.45 6.76025L221.717 28.0077" stroke="#815EF2" stroke-width="1.5" stroke-linecap="round"/>
<path d="M233.14 9.65771L227.515 25.1104" stroke="#815EF2" stroke-width="1.5" stroke-linecap="round"/>
<path d="M237.181 11.5894L232.962 23.1789" stroke="#815EF2" stroke-width="1.5" stroke-linecap="round"/>
<path d="M243.331 7.72607L236.3 27.042" stroke="#815EF2" stroke-width="1.5" stroke-linecap="round"/>
</g>
<path d="M228.398 0.704769C232.402 0.704822 234.538 3.75498 233.169 7.51754L224.618 31.0099C224.004 32.6965 222.051 34.0638 220.257 34.0639H201.287L213.429 0.704769H228.398Z" stroke="#815EF2" stroke-width="1.5"/>
<g clip-path="url(#clip2_360_2133)">
<path d="M167.548 15.4526L166.142 19.3158" stroke="#565659" stroke-width="1.5" stroke-linecap="round"/>
<path d="M175.807 5.79443L167.371 28.9735" stroke="#565659" stroke-width="1.5" stroke-linecap="round"/>
<path d="M177.387 14.4868L175.278 20.2816" stroke="#565659" stroke-width="1.5" stroke-linecap="round"/>
<path d="M185.998 3.86328L176.155 30.9055" stroke="#565659" stroke-width="1.5" stroke-linecap="round"/>
<path d="M187.227 13.521L184.414 21.2474" stroke="#565659" stroke-width="1.5" stroke-linecap="round"/>
<path d="M195.134 4.8291L185.995 29.9398" stroke="#565659" stroke-width="1.5" stroke-linecap="round"/>
</g>
<rect x="0.493485" y="0.704769" width="22.2196" height="35.5" transform="matrix(1 0 -0.34202 0.939693 168.669 0.0425028)" stroke="#565659" stroke-width="1.5"/>
<g clip-path="url(#clip3_360_2133)">
<path d="M189.801 15.4526L188.395 19.3158" stroke="#565659" stroke-width="1.5" stroke-linecap="round"/>
<path d="M198.061 5.79443L189.624 28.9735" stroke="#565659" stroke-width="1.5" stroke-linecap="round"/>
<path d="M199.641 14.4868L197.532 20.2816" stroke="#565659" stroke-width="1.5" stroke-linecap="round"/>
<path d="M208.251 3.86328L198.409 30.9055" stroke="#565659" stroke-width="1.5" stroke-linecap="round"/>
<path d="M209.48 13.521L206.668 21.2474" stroke="#565659" stroke-width="1.5" stroke-linecap="round"/>
<path d="M217.388 4.8291L208.248 29.9398" stroke="#565659" stroke-width="1.5" stroke-linecap="round"/>
</g>
<rect x="0.493485" y="0.704769" width="22.2196" height="35.5" transform="matrix(1 0 -0.34202 0.939693 190.923 0.0425028)" stroke="#565659" stroke-width="1.5"/>
<g clip-path="url(#clip4_360_2133)">
<path d="M36.1372 9.65771L30.5129 25.1104" stroke="#1EAF81" stroke-width="1.5" stroke-linecap="round"/>
<path d="M40.8809 9.65771L35.2565 25.1104" stroke="#1EAF81" stroke-width="1.5" stroke-linecap="round"/>
<path d="M45.8008 9.1748L39.8249 25.5933" stroke="#1EAF81" stroke-width="1.5" stroke-linecap="round"/>
<path d="M50.3687 9.65771L44.7443 25.1104" stroke="#1EAF81" stroke-width="1.5" stroke-linecap="round"/>
<path d="M55.2886 9.1748L49.3127 25.5933" stroke="#1EAF81" stroke-width="1.5" stroke-linecap="round"/>
<path d="M59.8564 9.65771L54.2321 25.1104" stroke="#1EAF81" stroke-width="1.5" stroke-linecap="round"/>
<path d="M64.7764 9.1748L58.8005 25.5933" stroke="#1EAF81" stroke-width="1.5" stroke-linecap="round"/>
</g>
<rect x="0.493485" y="0.704769" width="22.2196" height="35.5" transform="matrix(1 0 -0.34202 0.939693 35.1492 0.0425028)" stroke="#1EAF81" stroke-width="1.5"/>
<g clip-path="url(#clip5_360_2133)">
<path d="M13.8838 9.65771L8.25946 25.1104" stroke="#1EAF81" stroke-width="1.5" stroke-linecap="round"/>
<path d="M18.6274 9.65771L13.0031 25.1104" stroke="#1EAF81" stroke-width="1.5" stroke-linecap="round"/>
<path d="M23.5474 9.1748L17.5715 25.5933" stroke="#1EAF81" stroke-width="1.5" stroke-linecap="round"/>
<path d="M28.1152 9.65771L22.4909 25.1104" stroke="#1EAF81" stroke-width="1.5" stroke-linecap="round"/>
<path d="M33.0352 9.1748L27.0593 25.5933" stroke="#1EAF81" stroke-width="1.5" stroke-linecap="round"/>
<path d="M37.603 9.65771L31.9787 25.1104" stroke="#1EAF81" stroke-width="1.5" stroke-linecap="round"/>
<path d="M42.5229 9.1748L36.5471 25.5933" stroke="#1EAF81" stroke-width="1.5" stroke-linecap="round"/>
</g>
<path d="M16.3983 0.704769H35.368L23.2263 34.0639H8.25655C4.2525 34.0639 2.11673 31.0137 3.4862 27.2511L12.0367 3.75877C12.6506 2.07209 14.6033 0.70477 16.3983 0.704769Z" stroke="#1EAF81" stroke-width="1.5"/>
<g clip-path="url(#clip6_360_2133)">
<path d="M56.6328 14.4868L54.5237 20.2816" stroke="white" stroke-width="1.5" stroke-linecap="round"/>
<path d="M62.0796 12.5552L58.5644 22.2131" stroke="white" stroke-width="1.5" stroke-linecap="round"/>
<path d="M67.8784 9.65771L62.2541 25.1104" stroke="white" stroke-width="1.5" stroke-linecap="round"/>
<path d="M73.6768 6.76025L65.9433 28.0077" stroke="white" stroke-width="1.5" stroke-linecap="round"/>
<path d="M78.772 5.79443L70.3355 28.9735" stroke="white" stroke-width="1.5" stroke-linecap="round"/>
<path d="M82.813 7.72607L75.7826 27.042" stroke="white" stroke-width="1.5" stroke-linecap="round"/>
<path d="M86.5024 10.6235L81.5812 24.1447" stroke="white" stroke-width="1.5" stroke-linecap="round"/>
</g>
<rect x="0.493485" y="0.704769" width="22.2196" height="35.5" transform="matrix(1 0 -0.34202 0.939693 57.4027 0.0425028)" stroke="white" stroke-width="1.5"/>
<g clip-path="url(#clip7_360_2133)">
<path d="M136.982 20.2817L139.091 14.487" stroke="white" stroke-width="1.5" stroke-linecap="round"/>
<path d="M131.535 22.2134L135.05 12.5554" stroke="white" stroke-width="1.5" stroke-linecap="round"/>
<path d="M125.736 25.1108L131.361 9.65812" stroke="white" stroke-width="1.5" stroke-linecap="round"/>
<path d="M119.938 28.0083L127.671 6.76081" stroke="white" stroke-width="1.5" stroke-linecap="round"/>
<path d="M114.843 28.9741L123.279 5.79504" stroke="white" stroke-width="1.5" stroke-linecap="round"/>
<path d="M110.802 27.0425L117.832 7.72658" stroke="white" stroke-width="1.5" stroke-linecap="round"/>
<path d="M107.112 24.145L112.034 10.6239" stroke="white" stroke-width="1.5" stroke-linecap="round"/>
</g>
<rect x="-0.493485" y="-0.704769" width="22.2196" height="35.5" transform="matrix(-1 0 0.34202 -0.939693 135.707 33.4015)" stroke="white" stroke-width="1.5"/>
<g clip-path="url(#clip8_360_2133)">
<path d="M149.925 6.76025L142.191 28.0077" stroke="#929292" stroke-width="1.5" stroke-linecap="round"/>
<path d="M150.879 14.4868L148.77 20.2816" stroke="#929292" stroke-width="1.5" stroke-linecap="round"/>
<path d="M159.764 5.79443L151.328 28.9735" stroke="#929292" stroke-width="1.5" stroke-linecap="round"/>
<path d="M160.993 15.4526L159.587 19.3158" stroke="#929292" stroke-width="1.5" stroke-linecap="round"/>
<path d="M169.604 4.82861L160.464 29.9393" stroke="#929292" stroke-width="1.5" stroke-linecap="round"/>
</g>
<rect x="0.493485" y="0.704769" width="10.3598" height="35.5" transform="matrix(1 0 -0.34202 0.939693 147.883 0.0425028)" stroke="#929292" stroke-width="1.5"/>
<g clip-path="url(#clip9_360_2133)">
<path d="M160.318 6.76025L152.584 28.0077" stroke="#929292" stroke-width="1.5" stroke-linecap="round"/>
<path d="M161.272 14.4868L159.163 20.2816" stroke="#929292" stroke-width="1.5" stroke-linecap="round"/>
<path d="M170.157 5.79443L161.721 28.9735" stroke="#929292" stroke-width="1.5" stroke-linecap="round"/>
<path d="M171.386 15.4526L169.98 19.3158" stroke="#929292" stroke-width="1.5" stroke-linecap="round"/>
<path d="M179.997 4.82861L170.857 29.9393" stroke="#929292" stroke-width="1.5" stroke-linecap="round"/>
</g>
<rect x="0.493485" y="0.704769" width="10.3598" height="35.5" transform="matrix(1 0 -0.34202 0.939693 158.276 0.0425028)" stroke="#929292" stroke-width="1.5"/>
<path d="M256.76 23.5523H248.98L253.563 10.9604H261.063C263.623 10.9604 264.759 12.0692 264.034 14.0614C263.494 15.5461 262.21 16.6549 260.088 16.8805L260.04 17.012C262.232 17.2563 262.927 18.4216 262.325 20.0754C261.539 22.2367 259.52 23.5523 256.76 23.5523ZM255.04 12.7834L253.781 16.2415H258.841C260.341 16.2415 261.299 15.6965 261.73 14.5124C262.161 13.3284 261.66 12.7834 260.16 12.7834H255.04ZM253.172 17.9141L251.783 21.7293H257.184C258.784 21.7293 259.769 21.1655 260.268 19.7935C260.747 18.4779 260.152 17.9141 258.572 17.9141H253.172Z" fill="#1EAF81"/>
<path d="M269.939 23.5523H262.159L266.742 10.9604H274.242C276.802 10.9604 277.938 12.0692 277.213 14.0614C276.673 15.5461 275.389 16.6549 273.267 16.8805L273.219 17.012C275.41 17.2563 276.106 18.4216 275.504 20.0754C274.718 22.2367 272.699 23.5523 269.939 23.5523ZM268.218 12.7834L266.96 16.2415H272.02C273.52 16.2415 274.478 15.6965 274.909 14.5124C275.34 13.3284 274.838 12.7834 273.338 12.7834H268.218ZM266.351 17.9141L264.962 21.7293H270.362C271.962 21.7293 272.948 21.1655 273.447 19.7935C273.926 18.4779 273.331 17.9141 271.751 17.9141H266.351Z" fill="#815EF2"/>
<path d="M286.158 23.5523H275.438L280.021 10.9604H290.741L290.077 12.7834H281.517L280.231 16.3166H288.491L287.835 18.1209H279.575L278.261 21.7293H286.821L286.158 23.5523Z" fill="#815EF2"/>
<path d="M289.8 23.5523H287.64L292.223 10.9604H294.543L297.862 18.3276L298.747 20.6768H298.907L299.634 18.4028L302.343 10.9604H304.503L299.92 23.5523H297.6L294.235 16.2039L293.362 13.9862H293.202L292.488 16.1663L289.8 23.5523Z" fill="#815EF2"/>
<path d="M308.169 23.7402C304.009 23.7402 302.179 21.1843 303.609 17.2563C305.039 13.3284 308.729 10.7725 312.889 10.7725C316.669 10.7725 318.625 12.6518 317.53 15.6589L317.435 15.922H315.055L315.15 15.6589C315.848 13.7419 314.924 12.7082 312.204 12.7082C309.064 12.7082 307.031 14.1178 305.889 17.2563C304.747 20.3949 305.76 21.7857 308.9 21.7857C311.62 21.7857 313.29 20.7708 313.994 18.835L314.083 18.5907H316.463L316.374 18.835C315.273 21.8608 311.969 23.7402 308.169 23.7402Z" fill="white"/>
<path d="M322.18 23.7402C318.18 23.7402 316.625 21.7481 317.87 18.3276L320.552 10.9604H322.692L320.058 18.196C319.135 20.7332 319.952 21.7857 322.892 21.7857C325.832 21.7857 327.415 20.7332 328.338 18.196L330.972 10.9604H333.132L330.45 18.3276C329.205 21.7481 326.2 23.7402 322.18 23.7402Z" fill="white"/>
<path d="M336.923 23.5523H334.783L338.702 12.7834H333.422L334.086 10.9604H346.766L346.102 12.7834H340.842L336.923 23.5523Z" fill="white"/>
<defs>
<clipPath id="clip0_360_2133">
<rect width="47.4393" height="37" transform="matrix(1 0 -0.34202 0.939693 79.415 0)" fill="white"/>
</clipPath>
<clipPath id="clip1_360_2133">
<path d="M212.935 0H228.655C233.073 0 235.43 3.36572 233.919 7.51754L225.368 31.0099C224.612 33.0858 222.209 34.7686 220 34.7686H200.28L212.935 0Z" fill="white"/>
</clipPath>
<clipPath id="clip2_360_2133">
<rect width="23.7196" height="37" transform="matrix(1 0 -0.34202 0.939693 168.428 0)" fill="white"/>
</clipPath>
<clipPath id="clip3_360_2133">
<rect width="23.7196" height="37" transform="matrix(1 0 -0.34202 0.939693 190.682 0)" fill="white"/>
</clipPath>
<clipPath id="clip4_360_2133">
<rect width="23.7196" height="37" transform="matrix(1 0 -0.34202 0.939693 34.9082 0)" fill="white"/>
</clipPath>
<clipPath id="clip5_360_2133">
<path d="M11.2867 3.75877C12.0423 1.68286 14.4456 0 16.6548 0H36.3744L23.7197 34.7686H8.00005C3.58177 34.7686 1.22506 31.4029 2.7362 27.2511L11.2867 3.75877Z" fill="white"/>
</clipPath>
<clipPath id="clip6_360_2133">
<rect width="23.7196" height="37" transform="matrix(1 0 -0.34202 0.939693 57.1616 0)" fill="white"/>
</clipPath>
<clipPath id="clip7_360_2133">
<rect width="23.7196" height="37" transform="matrix(-1 0 0.34202 -0.939693 136.453 34.7686)" fill="white"/>
</clipPath>
<clipPath id="clip8_360_2133">
<rect width="11.8598" height="37" transform="matrix(1 0 -0.34202 0.939693 147.642 0)" fill="white"/>
</clipPath>
<clipPath id="clip9_360_2133">
<rect width="11.8598" height="37" transform="matrix(1 0 -0.34202 0.939693 158.035 0)" fill="white"/>
</clipPath>
</defs>
</svg>
