<svg width="352" height="35" viewBox="0 0 352 35" fill="none" xmlns="http://www.w3.org/2000/svg">
<g clip-path="url(#clip0_309_4829)">
<path d="M79.6113 12.5552L76.0961 22.2131" stroke="var(--bb-1)" stroke-width="1.5" stroke-linecap="round"/>
<path d="M85.7612 8.69189L79.4338 26.0762" stroke="var(--bb-1)" stroke-width="1.5" stroke-linecap="round"/>
<path d="M89.8017 10.6235L84.8804 24.1447" stroke="var(--bb-1)" stroke-width="1.5" stroke-linecap="round"/>
<path d="M95.9521 6.76025L88.2186 28.0077" stroke="var(--bb-1)" stroke-width="1.5" stroke-linecap="round"/>
<path d="M99.6415 9.65771L94.0172 25.1104" stroke="var(--bb-1)" stroke-width="1.5" stroke-linecap="round"/>
<path d="M103.682 11.5894L99.4638 23.1789" stroke="var(--bb-1)" stroke-width="1.5" stroke-linecap="round"/>
<path d="M109.832 7.72607L102.802 27.042" stroke="var(--bb-1)" stroke-width="1.5" stroke-linecap="round"/>
<path d="M115.279 5.79443L106.843 28.9735" stroke="var(--bb-1)" stroke-width="1.5" stroke-linecap="round"/>
<path d="M118.266 10.6235L113.344 24.1447" stroke="var(--bb-1)" stroke-width="1.5" stroke-linecap="round"/>
</g>
<rect x="0.493485" y="0.704769" width="45.9393" height="35.5" transform="matrix(1 0 -0.34202 0.939693 79.678 0.0425028)" stroke="var(--bb-1)" stroke-width="1.5"/>
<g clip-path="url(#clip1_309_4829)">
<path d="M213.131 12.5552L209.616 22.2131" stroke="var(--bb-1)" stroke-width="1.5" stroke-linecap="round"/>
<path d="M219.281 8.69189L212.954 26.0762" stroke="var(--bb-1)" stroke-width="1.5" stroke-linecap="round"/>
<path d="M223.322 10.6235L218.4 24.1447" stroke="var(--bb-1)" stroke-width="1.5" stroke-linecap="round"/>
<path d="M229.472 6.76025L221.739 28.0077" stroke="var(--bb-1)" stroke-width="1.5" stroke-linecap="round"/>
<path d="M233.162 9.65771L227.537 25.1104" stroke="var(--bb-1)" stroke-width="1.5" stroke-linecap="round"/>
<path d="M237.202 11.5894L232.984 23.1789" stroke="var(--bb-1)" stroke-width="1.5" stroke-linecap="round"/>
<path d="M243.352 7.72607L236.322 27.042" stroke="var(--bb-1)" stroke-width="1.5" stroke-linecap="round"/>
</g>
<path d="M228.42 0.704769C232.424 0.704822 234.56 3.75498 233.191 7.51754L224.64 31.0099C224.026 32.6965 222.073 34.0638 220.278 34.0639H201.309L213.45 0.704769H228.42Z" stroke="var(--bb-1)" stroke-width="1.5"/>
<g clip-path="url(#clip2_309_4829)">
<path d="M167.57 15.4526L166.164 19.3158" stroke="var(--bb-2)" stroke-width="1.5" stroke-linecap="round"/>
<path d="M175.829 5.79443L167.393 28.9735" stroke="var(--bb-2)" stroke-width="1.5" stroke-linecap="round"/>
<path d="M177.409 14.4868L175.3 20.2816" stroke="var(--bb-2)" stroke-width="1.5" stroke-linecap="round"/>
<path d="M186.02 3.86328L176.177 30.9055" stroke="var(--bb-2)" stroke-width="1.5" stroke-linecap="round"/>
<path d="M187.248 13.521L184.436 21.2474" stroke="var(--bb-2)" stroke-width="1.5" stroke-linecap="round"/>
<path d="M195.156 4.8291L186.017 29.9398" stroke="var(--bb-2)" stroke-width="1.5" stroke-linecap="round"/>
</g>
<rect x="0.493485" y="0.704769" width="22.2196" height="35.5" transform="matrix(1 0 -0.34202 0.939693 168.691 0.0425028)" stroke="var(--bb-2)" stroke-width="1.5"/>
<g clip-path="url(#clip3_309_4829)">
<path d="M189.823 15.4526L188.417 19.3158" stroke="var(--bb-2)" stroke-width="1.5" stroke-linecap="round"/>
<path d="M198.082 5.79443L189.646 28.9735" stroke="var(--bb-2)" stroke-width="1.5" stroke-linecap="round"/>
<path d="M199.663 14.4868L197.553 20.2816" stroke="var(--bb-2)" stroke-width="1.5" stroke-linecap="round"/>
<path d="M208.273 3.86328L198.431 30.9055" stroke="var(--bb-2)" stroke-width="1.5" stroke-linecap="round"/>
<path d="M209.502 13.521L206.69 21.2474" stroke="var(--bb-2)" stroke-width="1.5" stroke-linecap="round"/>
<path d="M217.41 4.8291L208.27 29.9398" stroke="var(--bb-2)" stroke-width="1.5" stroke-linecap="round"/>
</g>
<rect x="0.493485" y="0.704769" width="22.2196" height="35.5" transform="matrix(1 0 -0.34202 0.939693 190.945 0.0425028)" stroke="var(--bb-2)" stroke-width="1.5"/>
<g clip-path="url(#clip4_309_4829)">
<path d="M36.1591 9.65771L30.5348 25.1104" stroke="var(--bb-3)" stroke-width="1.5" stroke-linecap="round"/>
<path d="M40.9028 9.65771L35.2784 25.1104" stroke="var(--bb-3)" stroke-width="1.5" stroke-linecap="round"/>
<path d="M45.8227 9.1748L39.8468 25.5933" stroke="var(--bb-3)" stroke-width="1.5" stroke-linecap="round"/>
<path d="M50.3906 9.65771L44.7662 25.1104" stroke="var(--bb-3)" stroke-width="1.5" stroke-linecap="round"/>
<path d="M55.3105 9.1748L49.3346 25.5933" stroke="var(--bb-3)" stroke-width="1.5" stroke-linecap="round"/>
<path d="M59.8784 9.65771L54.254 25.1104" stroke="var(--bb-3)" stroke-width="1.5" stroke-linecap="round"/>
<path d="M64.7983 9.1748L58.8224 25.5933" stroke="var(--bb-3)" stroke-width="1.5" stroke-linecap="round"/>
</g>
<rect x="0.493485" y="0.704769" width="22.2196" height="35.5" transform="matrix(1 0 -0.34202 0.939693 35.1712 0.0425028)" stroke="var(--bb-3)" stroke-width="1.5"/>
<g clip-path="url(#clip5_309_4829)">
<path d="M13.9057 9.65771L8.28137 25.1104" stroke="var(--bb-3)" stroke-width="1.5" stroke-linecap="round"/>
<path d="M18.6494 9.65771L13.025 25.1104" stroke="var(--bb-3)" stroke-width="1.5" stroke-linecap="round"/>
<path d="M23.5693 9.1748L17.5934 25.5933" stroke="var(--bb-3)" stroke-width="1.5" stroke-linecap="round"/>
<path d="M28.1371 9.65771L22.5128 25.1104" stroke="var(--bb-3)" stroke-width="1.5" stroke-linecap="round"/>
<path d="M33.0571 9.1748L27.0812 25.5933" stroke="var(--bb-3)" stroke-width="1.5" stroke-linecap="round"/>
<path d="M37.6249 9.65771L32.0006 25.1104" stroke="var(--bb-3)" stroke-width="1.5" stroke-linecap="round"/>
<path d="M42.5449 9.1748L36.569 25.5933" stroke="var(--bb-3)" stroke-width="1.5" stroke-linecap="round"/>
</g>
<path d="M16.4202 0.704769H35.3899L23.2482 34.0639H8.27847C4.27441 34.0639 2.13864 31.0137 3.50811 27.2511L12.0586 3.75877C12.6725 2.07209 14.6253 0.70477 16.4202 0.704769Z" stroke="var(--bb-3)" stroke-width="1.5"/>
<g clip-path="url(#clip6_309_4829)">
<path d="M56.6542 14.4868L54.5451 20.2816" stroke="var(--bb-4)" stroke-width="1.5" stroke-linecap="round"/>
<path d="M62.1015 12.5552L58.5863 22.2131" stroke="var(--bb-4)" stroke-width="1.5" stroke-linecap="round"/>
<path d="M67.8998 9.65771L62.2755 25.1104" stroke="var(--bb-4)" stroke-width="1.5" stroke-linecap="round"/>
<path d="M73.6982 6.76025L65.9647 28.0077" stroke="var(--bb-4)" stroke-width="1.5" stroke-linecap="round"/>
<path d="M78.7939 5.79443L70.3574 28.9735" stroke="var(--bb-4)" stroke-width="1.5" stroke-linecap="round"/>
<path d="M82.8349 7.72607L75.8045 27.042" stroke="var(--bb-4)" stroke-width="1.5" stroke-linecap="round"/>
<path d="M86.5239 10.6235L81.6026 24.1447" stroke="var(--bb-4)" stroke-width="1.5" stroke-linecap="round"/>
</g>
<rect x="0.493485" y="0.704769" width="22.2196" height="35.5" transform="matrix(1 0 -0.34202 0.939693 57.4246 0.0425028)" stroke="var(--bb-4)" stroke-width="1.5"/>
<g clip-path="url(#clip7_309_4829)">
<path d="M137.004 20.2817L139.113 14.487" stroke="var(--bb-4)" stroke-width="1.5" stroke-linecap="round"/>
<path d="M131.557 22.2134L135.072 12.5554" stroke="var(--bb-4)" stroke-width="1.5" stroke-linecap="round"/>
<path d="M125.759 25.1108L131.383 9.65812" stroke="var(--bb-4)" stroke-width="1.5" stroke-linecap="round"/>
<path d="M119.96 28.0083L127.694 6.76081" stroke="var(--bb-4)" stroke-width="1.5" stroke-linecap="round"/>
<path d="M114.865 28.9741L123.301 5.79504" stroke="var(--bb-4)" stroke-width="1.5" stroke-linecap="round"/>
<path d="M110.824 27.0425L117.854 7.72658" stroke="var(--bb-4)" stroke-width="1.5" stroke-linecap="round"/>
<path d="M107.135 24.145L112.056 10.6239" stroke="var(--bb-4)" stroke-width="1.5" stroke-linecap="round"/>
</g>
<rect x="-0.493485" y="-0.704769" width="22.2196" height="35.5" transform="matrix(-1 0 0.34202 -0.939693 135.729 33.4015)" stroke="var(--bb-4)" stroke-width="1.5"/>
<g clip-path="url(#clip8_309_4829)">
<path d="M149.947 6.76025L142.213 28.0077" stroke="var(--bb-5)" stroke-width="1.5" stroke-linecap="round"/>
<path d="M150.901 14.4868L148.792 20.2816" stroke="var(--bb-5)" stroke-width="1.5" stroke-linecap="round"/>
<path d="M159.786 5.79443L151.35 28.9735" stroke="var(--bb-5)" stroke-width="1.5" stroke-linecap="round"/>
<path d="M161.015 15.4526L159.609 19.3158" stroke="var(--bb-5)" stroke-width="1.5" stroke-linecap="round"/>
<path d="M169.625 4.82861L160.486 29.9393" stroke="var(--bb-5)" stroke-width="1.5" stroke-linecap="round"/>
</g>
<rect x="0.493485" y="0.704769" width="10.3598" height="35.5" transform="matrix(1 0 -0.34202 0.939693 147.905 0.0425028)" stroke="var(--bb-5)" stroke-width="1.5"/>
<g clip-path="url(#clip9_309_4829)">
<path d="M160.34 6.76025L152.606 28.0077" stroke="var(--bb-5)" stroke-width="1.5" stroke-linecap="round"/>
<path d="M161.294 14.4868L159.185 20.2816" stroke="var(--bb-5)" stroke-width="1.5" stroke-linecap="round"/>
<path d="M170.179 5.79443L161.743 28.9735" stroke="var(--bb-5)" stroke-width="1.5" stroke-linecap="round"/>
<path d="M171.408 15.4526L170.002 19.3158" stroke="var(--bb-5)" stroke-width="1.5" stroke-linecap="round"/>
<path d="M180.018 4.82861L170.879 29.9393" stroke="var(--bb-5)" stroke-width="1.5" stroke-linecap="round"/>
</g>
<rect x="0.493485" y="0.704769" width="10.3598" height="35.5" transform="matrix(1 0 -0.34202 0.939693 158.298 0.0425028)" stroke="var(--bb-5)" stroke-width="1.5"/>
<path d="M253.137 25.6575C248.145 25.6575 245.949 22.5904 247.665 17.8769C249.381 13.1634 253.809 10.0962 258.801 10.0962C263.337 10.0962 265.684 12.3515 264.371 15.9599L264.256 16.2756H261.4L261.515 15.9599C262.352 13.6595 261.243 12.4191 257.979 12.4191C254.211 12.4191 251.772 14.1106 250.401 17.8769C249.03 21.6432 250.247 23.3121 254.015 23.3121C257.279 23.3121 259.282 22.0942 260.127 19.7713L260.234 19.4781H263.09L262.983 19.7713C261.662 23.4023 257.697 25.6575 253.137 25.6575Z" fill="var(--bb-3)"/>
<path d="M269.951 25.6575C265.151 25.6575 263.285 23.267 264.779 19.1624L267.996 10.3218H270.564L267.404 19.0045C266.296 22.0491 267.276 23.3121 270.804 23.3121C274.332 23.3121 276.232 22.0491 277.34 19.0045L280.5 10.3218H283.092L279.875 19.1624C278.381 23.267 274.775 25.6575 269.951 25.6575Z" fill="var(--bb-2)"/>
<path d="M287.641 25.432H285.073L289.777 12.5094H283.441L284.237 10.3218H299.453L298.657 12.5094H292.345L287.641 25.432Z" fill="var(--bb-1)"/>
<path d="M307.734 25.432H295.23L300.729 10.3218H303.321L298.618 23.2444H308.53L307.734 25.432Z" fill="var(--bb-5)"/>
<path d="M310.849 25.432H307.969L320.645 10.3218H324.293L325.969 25.432H323.041L322.622 21.5079H314.126L310.849 25.432ZM319.813 14.7195L315.954 19.3202H322.386L321.877 14.7195L321.72 12.577H321.528L319.813 14.7195Z" fill="var(--bb-5)"/>
<path d="M336.145 25.432H326.809L332.309 10.3218H341.309C344.381 10.3218 345.745 11.6524 344.875 14.0429C344.226 15.8246 342.686 17.1552 340.139 17.4258L340.082 17.5837C342.711 17.8769 343.546 19.2751 342.824 21.2598C341.88 23.8533 339.457 25.432 336.145 25.432ZM334.081 12.5094L332.571 16.659H338.643C340.443 16.659 341.593 16.005 342.11 14.5842C342.627 13.1634 342.025 12.5094 340.225 12.5094H334.081ZM331.84 18.6662L330.174 23.2444H336.654C338.574 23.2444 339.756 22.5678 340.355 20.9215C340.93 19.3428 340.216 18.6662 338.32 18.6662H331.84Z" fill="var(--bb-5)"/>
<defs>
<clipPath id="clip0_309_4829">
<rect width="47.4393" height="37" transform="matrix(1 0 -0.34202 0.939693 79.4369 0)" fill="white"/>
</clipPath>
<clipPath id="clip1_309_4829">
<path d="M212.957 0H228.677C233.095 0 235.452 3.36572 233.94 7.51754L225.39 31.0099C224.634 33.0858 222.231 34.7686 220.022 34.7686H200.302L212.957 0Z" fill="white"/>
</clipPath>
<clipPath id="clip2_309_4829">
<rect width="23.7196" height="37" transform="matrix(1 0 -0.34202 0.939693 168.45 0)" fill="white"/>
</clipPath>
<clipPath id="clip3_309_4829">
<rect width="23.7196" height="37" transform="matrix(1 0 -0.34202 0.939693 190.704 0)" fill="white"/>
</clipPath>
<clipPath id="clip4_309_4829">
<rect width="23.7196" height="37" transform="matrix(1 0 -0.34202 0.939693 34.9301 0)" fill="white"/>
</clipPath>
<clipPath id="clip5_309_4829">
<path d="M11.3086 3.75877C12.0642 1.68286 14.4676 0 16.6767 0H36.3963L23.7416 34.7686H8.02196C3.60368 34.7686 1.24697 31.4029 2.75811 27.2511L11.3086 3.75877Z" fill="white"/>
</clipPath>
<clipPath id="clip6_309_4829">
<rect width="23.7196" height="37" transform="matrix(1 0 -0.34202 0.939693 57.1835 0)" fill="white"/>
</clipPath>
<clipPath id="clip7_309_4829">
<rect width="23.7196" height="37" transform="matrix(-1 0 0.34202 -0.939693 136.475 34.7686)" fill="white"/>
</clipPath>
<clipPath id="clip8_309_4829">
<rect width="11.8598" height="37" transform="matrix(1 0 -0.34202 0.939693 147.664 0)" fill="white"/>
</clipPath>
<clipPath id="clip9_309_4829">
<rect width="11.8598" height="37" transform="matrix(1 0 -0.34202 0.939693 158.057 0)" fill="white"/>
</clipPath>
</defs>
</svg>
